<svg width="72" height="72" viewBox="0 0 72 72" fill="none" xmlns="http://www.w3.org/2000/svg">
<rect width="72" height="72" rx="36" fill="#850020"/>
<path d="M21.808 45.984C22.896 45.984 23.824 45.744 24.592 45.264C25.36 44.784 25.984 44.16 26.464 43.392C26.944 42.592 27.296 41.68 27.52 40.656C27.744 39.632 27.856 38.56 27.856 37.44V19.92H37.216V37.44C37.216 39.808 36.912 42.032 36.304 44.112C35.696 46.16 34.752 47.936 33.472 49.44C32.192 50.944 30.576 52.128 28.624 52.992C26.704 53.856 24.432 54.288 21.808 54.288C19.088 54.288 16.752 53.84 14.8 52.944C12.88 52.016 11.296 50.784 10.048 49.248C8.8 47.712 7.888 45.936 7.312 43.92C6.736 41.872 6.448 39.712 6.448 37.44V19.92H15.808V37.44C15.808 38.56 15.92 39.648 16.144 40.704C16.368 41.728 16.72 42.64 17.2 43.44C17.68 44.208 18.288 44.832 19.024 45.312C19.792 45.76 20.72 45.984 21.808 45.984Z" fill="white"/>
<path d="M54.8274 54V36.048L49.1154 48.672H44.1234L38.4114 36.048V54H29.0514V19.92H39.2754L46.6194 35.952L54.0114 19.92H64.1874V54H54.8274Z" fill="white"/>
</svg>
